<svg xmlns="http://www.w3.org/2000/svg" viewBox="0 0 85.2 85.2"><title>Asset 1</title><g id="Layer_2" data-name="Layer 2"><g id="Layer_1-2" data-name="Layer 1"><path d="M42.6,0A42.6,42.6,0,1,0,85.2,42.6,42.64,42.64,0,0,0,42.6,0Zm0,80.7A38.1,38.1,0,1,1,80.7,42.6,38.15,38.15,0,0,1,42.6,80.7Zm-11.7-68c-.8-1.6.3-3.6,2.5-4.6a5.32,5.32,0,0,1,3-.5,3,3,0,0,1,2.2,1.5,2.91,2.91,0,0,1-.2,2.7,6.09,6.09,0,0,1-2.2,2,5.93,5.93,0,0,1-2.3.5,1.7,1.7,0,0,1-.7-.1A2.51,2.51,0,0,1,30.9,12.7ZM76.4,35.9c-.1,1.6-1.8,2.8-4,2.8H72c-2.4-.2-4.1-1.7-4-3.4s2.1-3,4.4-2.8S76.6,34.1,76.4,35.9Zm-20-.6c1.1,1.3.6,3.6-1.2,5.1a5.06,5.06,0,0,1-3.1,1.2,2.58,2.58,0,0,1-2.1-.9c-1.1-1.3-.6-3.6,1.2-5.1h0a5,5,0,0,1,2.7-1.2A2.81,2.81,0,0,1,56.4,35.3ZM71.7,54.4a2.83,2.83,0,0,1,.8,2.5A3.37,3.37,0,0,1,69,59.2a4.87,4.87,0,0,1-1.2-.1,4.73,4.73,0,0,1-2.6-1.4,2.83,2.83,0,0,1-.8-2.5,2.77,2.77,0,0,1,1.8-2,5,5,0,0,1,3-.2A5.22,5.22,0,0,1,71.7,54.4ZM61.4,17.3a2.77,2.77,0,0,1-1.8,2,5.23,5.23,0,0,1-1.8.3,4.87,4.87,0,0,1-1.2-.1A4.41,4.41,0,0,1,54,18.1a2.83,2.83,0,0,1-.8-2.5c.4-1.7,2.5-2.7,4.8-2.2S61.8,15.6,61.4,17.3ZM14.6,33.6a5.06,5.06,0,0,1-3.1-1.2,5.89,5.89,0,0,1-1.7-2.5,2.61,2.61,0,0,1,.5-2.6,2.81,2.81,0,0,1,2.5-.9,5,5,0,0,1,2.7,1.2c1.8,1.5,2.3,3.8,1.2,5.1A2.45,2.45,0,0,1,14.6,33.6Zm4,23.9a5.37,5.37,0,0,1-2,2.2,2.82,2.82,0,0,1-1.5.4,2,2,0,0,1-1.1-.3,3,3,0,0,1-1.5-2.2,6,6,0,0,1,.5-2.9,5.32,5.32,0,0,1,2-2.2,3.23,3.23,0,0,1,2.7-.2C19.2,53.1,19.6,55.4,18.6,57.5Zm30,10.1c.8,1.6-.3,3.6-2.5,4.6a4.79,4.79,0,0,1-2.3.5,3.13,3.13,0,0,1-2.9-1.6c-.8-1.6.3-3.6,2.5-4.6a5.32,5.32,0,0,1,3-.5A3.1,3.1,0,0,1,48.6,67.6ZM33.1,33a3.18,3.18,0,0,1-2-.8,5.59,5.59,0,0,1-1.5-2.6c-.5-2.3.4-4.4,2.1-4.8a2.93,2.93,0,0,1,2.6.8,5.59,5.59,0,0,1,1.5,2.6c.5,2.3-.4,4.4-2.1,4.8C33.5,32.9,33.3,33,33.1,33Zm7.3,19a3.16,3.16,0,0,1-.3,2.7,2.9,2.9,0,0,1-2.4,1.1,4.85,4.85,0,0,1-2.9-1c-1.9-1.4-2.6-3.6-1.6-5a2.9,2.9,0,0,1,2.4-1.1,5.31,5.31,0,0,1,2.8,1A4.39,4.39,0,0,1,40.4,52Z"/></g></g></svg>