<svg width="80" height="80" viewBox="0 0 80 80" fill="none" xmlns="http://www.w3.org/2000/svg">
<rect x="1.5" y="1.5" width="77" height="77" rx="3.5" stroke="#439675" stroke-width="3"/>
<rect x="10.5" y="23.5" width="59" height="46" rx="3.5" stroke="#439675" stroke-width="3"/>
<line x1="2" y1="15.5" x2="79" y2="15.5" stroke="#439675" stroke-width="3"/>
<line x1="50.5" y1="71" x2="50.5" y2="25" stroke="#439675" stroke-width="3"/>
<line x1="6" y1="8.5" x2="9" y2="8.5" stroke="#439675" stroke-width="3"/>
<line x1="12" y1="8.5" x2="15" y2="8.5" stroke="#439675" stroke-width="3"/>
<line x1="18" y1="8.5" x2="21" y2="8.5" stroke="#439675" stroke-width="3"/>
<line x1="55" y1="29.5" x2="65" y2="29.5" stroke="#439675" stroke-width="3"/>
<line x1="55" y1="35.5" x2="65" y2="35.5" stroke="#439675" stroke-width="3"/>
<line x1="55" y1="41.5" x2="62" y2="41.5" stroke="#439675" stroke-width="3"/>
<path d="M26.7564 42.3921L20.4895 52.2314C20.2775 52.5642 20.5166 53 20.9113 53H43.1027C43.4944 53 43.7339 52.57 43.5278 52.2369L34.5409 37.7126C34.3418 37.3907 33.871 37.3983 33.6823 37.7265L29.7335 44.594C29.5412 44.9283 29.0588 44.9283 28.8665 44.594L27.6116 42.4115C27.4243 42.0858 26.9582 42.0752 26.7564 42.3921Z" stroke="#439675" stroke-width="3"/>
</svg>
