<?xml version="1.0" encoding="utf-8"?>
<!-- Generator: Adobe Illustrator 22.0.1, SVG Export Plug-In . SVG Version: 6.00 Build 0)  -->
<svg version="1.1" id="Layer_1" xmlns="http://www.w3.org/2000/svg" xmlns:xlink="http://www.w3.org/1999/xlink" x="0px" y="0px"
	 viewBox="0 0 215 164" style="enable-background:new 0 0 215 164;" xml:space="preserve">
<style type="text/css">
	.st0{fill:#030095;}
</style>
<g id="Layer_3">
	<path d="M130.4,130.1c-9.9-5.5-20.6-9.5-31.7-12c-0.1,0-0.2-0.1-0.3-0.2c-0.1-0.1-0.1-0.2-0.1-0.3v-6.5c3.8-5,6.7-10.6,8.4-16.6
		c4.3-4.3,6.3-11.1,7.3-14.7c1.7-5.9,3.4-14.5-1.3-20.7l-0.2-0.3c2.2-10.8,5-36.3-14.4-49.2c1.1-1.1,2-2.5,2.6-4
		c0.6-1.5,0.9-3.1,0.8-4.7c0-0.2-0.1-0.3-0.1-0.4c-0.1-0.1-0.2-0.3-0.3-0.4C101,0.1,100.7,0,100.3,0c-0.2,0-24.5,2.7-36.2,0.3
		S38.9,7,36.2,16.3c-4.5,0.6-8.7,2.9-11.5,6.5c-5.3,6.5-6.9,16.9-4.8,30.8c0.1,1.8,0.4,3.6,0.7,5.4l-0.2,0.3
		c-4.6,6-2.9,14.6-1.2,20.5c1,3.7,3,10.4,7.3,14.7c1.7,6.1,4.6,11.8,8.4,16.8v6.5c0,0.1,0,0.2-0.1,0.3c-0.1,0.1-0.2,0.1-0.3,0.2
		c-11.1,2.4-21.8,6.5-31.7,11.9c-0.8,0.4-1.4,1-1.9,1.8c-0.5,0.7-0.8,1.6-0.9,2.4c-0.1,0.9,0,1.7,0.3,2.6s0.8,1.6,1.4,2.2
		c17.7,16.1,40.9,25,64.8,25s47.1-8.9,64.8-25c0.6-0.6,1.1-1.3,1.4-2.2c0.3-0.8,0.4-1.7,0.3-2.6c-0.1-0.9-0.4-1.7-0.9-2.4
		C131.7,131.2,131.1,130.6,130.4,130.1L130.4,130.1z M66.6,141.6c-5.1,0.1-10.1-1.1-14.6-3.4s-8.5-5.6-11.5-9.6
		c2.7-1.5,4.7-3.9,5.7-6.7c2.7,1.8,5.6,3.2,8.7,4.3c7.6,2.7,15.9,2.7,23.4,0c3.1-1.1,6-2.6,8.7-4.3c1,2.9,3,5.3,5.7,6.8
		c-3,4.1-7,7.4-11.5,9.6C76.7,140.5,71.7,141.6,66.6,141.6z M97,88.4c-1.6,10.3-9.8,23.1-22.4,27.6c-5.2,1.9-10.9,1.9-16.2,0
		c-13-4.6-20.8-17.5-22.3-27.6c0-0.3-0.2-0.5-0.4-0.7c-0.2-0.2-0.4-0.3-0.7-0.3c-0.6,0-2.8-1-5.6-10.6c-2.2-7.5-1.2-10.3-0.5-11.2
		c0.3-0.3,0.6-0.6,1-0.7c0.4-0.2,0.8-0.2,1.2-0.2h0.4c0.3,0,0.6-0.1,0.8-0.3s0.4-0.5,0.4-0.8c0-0.2,1.3-16.4,11-22.2
		c4.8-2.9,11-2.8,18.4,0.3c15.2,6.5,26.4,6,33.2,4.5c7.8,5.7,5.6,14.9,5,16.7v0.2c-0.1,0.2-0.1,0.4,0,0.6c0,0.2,0.1,0.4,0.2,0.5
		c0.1,0.2,0.3,0.3,0.4,0.3c0.2,0.1,0.4,0.1,0.6,0.1c0.5-0.1,1-0.1,1.4,0.1c0.5,0.2,0.9,0.4,1.2,0.8c0.7,1,1.6,3.7-0.5,11.2
		c-2.7,9.7-5,10.6-5.6,10.6c-0.3,0-0.5,0.1-0.7,0.3C97.2,87.9,97,88.2,97,88.4z"/>
</g>
<g id="Layer_2">
	<path class="st0" d="M173,13c-23.2,0-42,18.8-42,42v36c0,3.3,2.7,6,6,6h36c23.2,0,42-18.8,42-42S196.2,13,173,13z M187.4,58.4l-7,7
		c-0.8,0.8-2,0.8-2.8,0c-0.8-0.8-0.8-2,0-2.8l3.6-3.6H150c-1.1,0-2-0.9-2-2s0.9-2,2-2h31.2l-3.6-3.6c-0.8-0.8-0.8-2,0-2.8
		c0.8-0.8,2-0.8,2.8,0l7,7C188.2,56.4,188.2,57.6,187.4,58.4z M199.4,58.4l-7,7c-0.8,0.8-2,0.8-2.8,0c-0.8-0.8-0.8-2,0-2.8l5.6-5.6
		l-5.6-5.6c-0.8-0.8-0.8-2,0-2.8c0.8-0.8,2-0.8,2.8,0l7,7C200.2,56.4,200.2,57.6,199.4,58.4z"/>
</g>
</svg>
